<svg viewBox="0 0 1000 500" xmlns="http://www.w3.org/2000/svg">
  <defs>
    <linearGradient id="mapGlow" x1="0%" y1="0%" x2="100%" y2="100%">
      <stop offset="0%" style="stop-color:#0080FF;stop-opacity:0.1" />
      <stop offset="100%" style="stop-color:#00FFFF;stop-opacity:0.05" />
    </linearGradient>
  </defs>
  <rect fill="url(#mapGlow)" width="1000" height="500" opacity="0.3"/>
  
  <g fill="rgba(0, 128, 255, 0.15)" stroke="rgba(0, 128, 255, 0.3)" stroke-width="0.5">
    <path d="M165,120 L175,115 L190,118 L205,110 L215,115 L225,108 L240,112 L250,105 L265,110 L275,100 L290,108 L305,95 L320,100 L335,92 L345,98 L355,90 L365,95 L375,88 L385,92 L395,85 L405,90 L410,82 L420,88 L430,80 L440,85 L445,78 L455,82 L460,75 L470,80 L475,72 L485,78 L495,70 L510,75 L520,68 L535,72 L545,65 L560,70 L575,62 L590,68 L600,60 L610,65 L620,58 L630,62 L640,55 L650,60 L655,52 L665,58 L675,50 L690,55 L700,48 L715,52 L725,45 L740,50 L755,42 L770,48 L785,40 L800,45 L810,38 L820,42 L830,35 L840,40 L850,32 L865,38 L880,30 L895,35 L910,28 L925,32 L940,25 L955,30 L970,22 L985,28 L1000,20 L1000,200 L985,195 L970,200 L955,192 L940,198 L925,190 L910,195 L895,188 L880,192 L865,185 L850,190 L835,182 L820,188 L805,180 L790,185 L775,178 L760,182 L745,175 L730,180 L715,172 L700,178 L685,170 L670,175 L655,168 L640,172 L625,165 L610,170 L595,162 L580,168 L565,160 L550,165 L535,158 L520,162 L505,155 L490,160 L475,152 L460,158 L445,150 L430,155 L415,148 L400,152 L385,145 L370,150 L355,142 L340,148 L325,140 L310,145 L295,138 L280,142 L265,135 L250,140 L235,132 L220,138 L205,130 L190,135 L175,128 L165,132 Z"/>
    
    <path d="M420,180 L450,175 L480,180 L510,172 L540,178 L570,170 L600,175 L620,168 L640,172 L660,165 L680,170 L700,162 L720,168 L740,160 L760,165 L780,158 L800,162 L820,155 L840,160 L860,152 L880,158 L900,150 L920,155 L940,148 L960,152 L980,145 L1000,150 L1000,280 L980,275 L960,282 L940,275 L920,280 L900,272 L880,278 L860,270 L840,276 L820,268 L800,274 L780,266 L760,272 L740,264 L720,270 L700,262 L680,268 L660,260 L640,266 L620,258 L600,264 L580,256 L560,262 L540,254 L520,260 L500,252 L480,258 L460,250 L440,256 L420,248 Z"/>
    
    <path d="M0,150 L30,145 L60,152 L90,145 L120,150 L150,142 L180,148 L210,140 L240,146 L270,138 L300,144 L320,136 L340,142 L360,134 L380,140 L400,132 L420,138 L440,130 L460,136 L480,128 L500,134 L520,126 L540,132 L560,124 L580,130 L600,122 L620,128 L640,120 L660,126 L680,118 L700,124 L720,116 L740,122 L760,114 L780,120 L800,112 L820,118 L840,110 L860,116 L880,108 L900,114 L920,106 L940,112 L960,104 L980,110 L1000,102 L1000,180 L980,175 L960,182 L940,175 L920,180 L900,172 L880,178 L860,170 L840,176 L820,168 L800,174 L780,166 L760,172 L740,164 L720,170 L700,162 L680,168 L660,160 L640,166 L620,158 L600,164 L580,156 L560,162 L540,154 L520,160 L500,152 L480,158 L460,150 L440,156 L420,148 L400,154 L380,146 L360,152 L340,144 L320,150 L300,142 L280,148 L260,140 L240,146 L220,138 L200,144 L180,136 L160,142 L140,134 L120,140 L100,132 L80,138 L60,130 L40,136 L20,128 L0,134 Z"/>

    <path d="M200,280 L230,275 L260,282 L290,275 L320,280 L350,272 L380,278 L400,270 L420,276 L440,268 L460,274 L480,266 L500,272 L520,264 L540,270 L560,262 L580,268 L600,260 L620,266 L640,258 L660,264 L680,256 L700,262 L700,380 L680,375 L660,382 L640,375 L620,380 L600,372 L580,378 L560,370 L540,376 L520,368 L500,374 L480,366 L460,372 L440,364 L420,370 L400,362 L380,368 L360,360 L340,366 L320,358 L300,364 L280,356 L260,362 L240,354 L220,360 L200,352 Z"/>

    <path d="M750,280 L780,275 L810,282 L840,275 L870,280 L900,272 L930,278 L960,270 L1000,276 L1000,420 L960,415 L930,422 L900,415 L870,420 L840,412 L810,418 L780,410 L750,416 L720,408 L750,350 Z"/>

    <path d="M80,320 L110,315 L140,322 L170,315 L200,320 L230,312 L260,318 L290,310 L320,316 L350,308 L380,314 L410,306 L440,312 L470,304 L500,310 L500,420 L470,415 L440,422 L410,415 L380,420 L350,412 L320,418 L290,410 L260,416 L230,408 L200,414 L170,406 L140,412 L110,404 L80,410 Z"/>
  </g>

  <g fill="none" stroke="rgba(0, 128, 255, 0.08)" stroke-width="1">
    <line x1="0" y1="125" x2="1000" y2="125"/>
    <line x1="0" y1="250" x2="1000" y2="250"/>
    <line x1="0" y1="375" x2="1000" y2="375"/>
    <line x1="250" y1="0" x2="250" y2="500"/>
    <line x1="500" y1="0" x2="500" y2="500"/>
    <line x1="750" y1="0" x2="750" y2="500"/>
  </g>
</svg>